<?xml version="1.0" encoding="UTF-8" standalone="no"?>
<svg width="170px" height="58px" viewBox="0 0 170 58" version="1.1" xmlns="http://www.w3.org/2000/svg" xmlns:xlink="http://www.w3.org/1999/xlink" xmlns:sketch="http://www.bohemiancoding.com/sketch/ns">
    <!-- Generator: Sketch 3.3.3 (12081) - http://www.bohemiancoding.com/sketch -->
    <title>gd-se--logo</title>
    <desc>Created with Sketch.</desc>
    <defs></defs>
    <g id="Page-1" stroke="none" stroke-width="1" fill="none" fill-rule="evenodd" sketch:type="MSPage">
        <g id="gd-se--logo" sketch:type="MSArtboardGroup">
            <g sketch:type="MSLayerGroup" id="Group" fill="#EA4A5A">
                <g sketch:type="MSShapeGroup">
                    <path d="M29,57.4 C13.3,57.4 0.6,44.7 0.6,29 C0.6,13.3 13.3,0.6 29,0.6 C44.7,0.6 57.4,13.3 57.4,29 C57.4,44.7 44.6,57.4 29,57.4 L29,57.4 Z M29,1.6 C13.8,1.6 1.5,13.9 1.5,29 C1.5,44.1 13.8,56.4 29,56.4 C44.2,56.4 56.4,44.1 56.4,29 C56.4,13.9 44.1,1.6 29,1.6 L29,1.6 Z" id="Shape"></path>
                    <path d="M28.9,57.4 C19.9,57.4 11.6,53.3 6.2,46.1 L6,45.9 L28.9,0.7 L29.5,0.7 L29.7,1 L51.9,45.8 L51.7,46 C46.3,53.3 38,57.4 28.9,57.4 L28.9,57.4 Z M7.2,45.8 C12.4,52.6 20.3,56.5 28.9,56.5 C37.5,56.5 45.5,52.6 50.7,45.7 L29.2,2.2 L7.2,45.8 L7.2,45.8 Z" id="Shape"></path>
                    <path d="M29.1,57.2 L0.8,29 L29.1,0.7 L57.3,29 L29.1,57.2 L29.1,57.2 Z M2.2,29 L29.1,55.9 L56,29 L29.1,2.1 L2.2,29 L2.2,29 Z" id="Shape"></path>
                </g>
            </g>
            <path d="M90.97,28.23 C90.97,25.11 90.13,23.22 89.38,22.05 C88.72,21 88.09,20.43 87.7,20.13 C85.12,18 81.58,17.91 80.68,17.85 C80.05,17.82 79.42,17.82 78.76,17.82 L72.01,17.82 L72.01,39 L80.32,39 C81.52,39 82.54,38.94 83.71,38.67 C86.29,38.07 87.85,36.69 88.54,35.91 C89.68,34.59 90.97,32.22 90.97,28.23 L90.97,28.23 Z M85.66,28.41 C85.66,31.29 84.79,32.82 83.71,33.63 C82.33,34.65 80.53,34.74 78.97,34.74 L77.35,34.74 L77.35,22.29 L79.48,22.29 C80.5,22.29 81.4,22.26 82.39,22.59 C83.53,22.95 84.16,23.67 84.46,24.03 C85.48,25.32 85.66,26.79 85.66,28.41 L85.66,28.41 Z M108.73,32.13 C108.7,31.38 108.76,28.14 106.99,25.71 C105.04,22.98 101.92,22.86 100.87,22.86 C97.45,22.86 95.8,24.27 94.84,25.35 C92.89,27.6 92.83,30.51 92.83,31.47 C92.83,35.01 94.45,38.07 97.93,39.15 C99.16,39.54 100.27,39.57 100.75,39.57 C101.92,39.57 104.92,39.36 107.23,36.81 C107.59,36.39 107.92,35.97 108.55,35.04 L105.07,33.24 C104.86,33.63 104.17,35.22 102.61,35.76 C101.98,36 101.38,36.03 101.11,36.03 C99.25,36.03 97.96,34.89 97.6,33.06 C97.51,32.64 97.54,32.28 97.54,32.13 L108.73,32.13 Z M103.96,29.25 L97.57,29.25 C97.69,28.65 97.81,28.32 97.93,28.05 C98.17,27.51 99.01,26.16 100.84,26.16 C101.11,26.16 101.62,26.16 102.25,26.46 C103.81,27.15 103.9,28.74 103.96,29.25 L103.96,29.25 Z M124.27,33.93 C124.27,31.02 122.11,29.76 119.62,29.22 L117.55,28.77 C117.04,28.65 115.9,28.5 115.45,28.2 C115.21,28.02 115.03,27.75 115.03,27.45 C115.03,27.18 115.18,26.79 115.75,26.52 C115.96,26.43 116.56,26.25 117.22,26.25 C118.21,26.25 119.47,26.7 120.31,27.21 C120.61,27.39 120.88,27.6 121.15,27.81 L124,25.17 C123.58,24.87 123.16,24.6 122.71,24.33 C120.34,22.98 118.03,22.83 117.04,22.83 C113.56,22.83 111.79,24.45 111.07,25.74 C110.5,26.73 110.41,27.66 110.41,28.08 C110.41,28.44 110.47,29.19 110.89,30.03 C111.7,31.59 113.2,32.34 116.47,32.88 C118.15,33.15 119.53,33.27 119.56,34.35 C119.56,35.22 118.63,35.61 117.94,35.76 C117.43,35.88 117.01,35.91 116.8,35.91 C115.51,35.91 114.1,35.31 113.08,34.5 C112.78,34.29 112.51,34.02 112.24,33.75 L109.3,36.39 C109.6,36.66 110.23,37.29 111.16,37.86 C113.44,39.27 116.05,39.42 116.89,39.42 C119.26,39.42 122.14,38.61 123.52,36.54 C123.79,36.15 124.27,35.22 124.27,33.93 L124.27,33.93 Z M131.65,21.39 L131.65,17.82 L127.06,17.82 L127.06,21.39 L131.65,21.39 Z M131.65,39 L131.65,23.34 L127.06,23.34 L127.06,39 L131.65,39 Z M149.86,38.37 L149.86,23.34 L145.51,23.34 L145.51,24.78 C145.21,24.48 145,24.27 144.64,24.03 C144.1,23.67 142.99,23.07 141.34,23.07 C139.99,23.07 138.97,23.4 138.49,23.61 C136.9,24.33 134.68,26.52 134.68,30.72 C134.68,36.81 138.61,38.28 141.16,38.28 C142.6,38.28 143.77,37.8 144.22,37.59 C144.73,37.32 145.09,37.05 145.27,36.93 L145.3,38.64 C145.3,39.48 145.3,40.32 144.61,40.92 C143.92,41.55 142.69,41.55 142.54,41.55 C141.31,41.55 140.65,41.13 140.29,40.71 C139.78,40.17 139.75,39.72 139.69,39 L134.92,39 C134.92,39.48 134.83,40.92 135.7,42.18 C135.82,42.36 136.03,42.63 136.39,42.93 C137.29,43.68 139.21,44.61 142.09,44.61 C142.54,44.61 145.63,44.61 147.64,43.32 C149.47,42.12 149.71,40.41 149.8,39.63 C149.83,39.21 149.86,38.79 149.86,38.37 L149.86,38.37 Z M145.27,30.69 C145.27,31.83 145.15,33.33 144.22,34.17 C143.92,34.44 143.38,34.77 142.39,34.77 C139.87,34.77 139.6,32.64 139.51,31.86 C139.48,31.5 139.45,31.11 139.45,30.72 C139.45,30.6 139.33,27.96 140.77,26.94 C141.31,26.58 142,26.52 142.18,26.52 C143.68,26.46 144.46,27.24 144.76,27.75 C145.18,28.5 145.27,29.91 145.27,30.69 L145.27,30.69 Z M167.92,39 L167.92,28.29 C167.92,26.37 167.77,24.6 165.85,23.58 C164.74,22.98 163.42,22.95 163.06,22.95 C161.2,22.95 159.94,23.61 159.37,24.03 C158.98,24.33 158.8,24.57 158.65,24.72 L158.65,23.37 L153.97,23.37 L153.97,39 L158.59,39 L158.59,30.54 C158.59,28.68 158.68,27.72 159.46,27.12 C160.03,26.64 160.81,26.64 161.02,26.64 C162.34,26.64 162.91,27.36 163.12,27.9 C163.27,28.32 163.3,29.1 163.3,30.15 L163.3,39 L167.92,39 Z" id="Design" fill="#CCCCC2" sketch:type="MSShapeGroup"></path>
        </g>
    </g>
</svg>