<?xml version="1.0" encoding="UTF-8" standalone="no"?>
<svg width="235px" height="42px" viewBox="0 0 235 42" version="1.1" xmlns="http://www.w3.org/2000/svg" xmlns:xlink="http://www.w3.org/1999/xlink" xmlns:sketch="http://www.bohemiancoding.com/sketch/ns">
    <!-- Generator: Sketch 3.3.3 (12081) - http://www.bohemiancoding.com/sketch -->
    <title>ux-face--tag-line</title>
    <desc>Created with Sketch.</desc>
    <defs></defs>
    <g id="Page-1" stroke="none" stroke-width="1" fill="none" fill-rule="evenodd" sketch:type="MSPage">
        <g id="Artboard-30" sketch:type="MSArtboardGroup" transform="translate(-7.000000, -18.000000)" fill="#FFFFFF">
            <g id="ux-face--tag-line" sketch:type="MSLayerGroup" transform="translate(7.000000, 18.000000)">
                <g id="ux-face--42px" sketch:type="MSShapeGroup">
                    <path d="M25.2950168,15.6176164 L22.6697632,12.0261747 C22.2134795,11.4019622 22.3496127,10.5260469 22.9738253,10.0697632 C23.5980378,9.61347946 24.4739531,9.74961269 24.9302368,10.3738253 L27.0291667,13.2452369 L29.1280965,10.3738253 C29.5843802,9.74961269 30.4602955,9.61347946 31.0845081,10.0697632 C31.7087206,10.5260469 31.8448539,11.4019622 31.3885702,12.0261747 L28.7633165,15.6176164 L31.3636426,19.1749563 C31.8199263,19.7991688 31.6837931,20.6750841 31.0595805,21.1313679 C30.435368,21.5876516 29.5594527,21.4515183 29.103169,20.8273058 L27.0291667,17.9899959 L24.9551644,20.8273058 C24.4988807,21.4515183 23.6229654,21.5876516 22.9987528,21.1313679 C22.3745402,20.6750841 22.238407,19.7991688 22.6946907,19.1749563 L25.2950168,15.6176164 Z M13.1274073,21.4666645 C10.457259,21.4646819 8.4,20.1222343 8.4,16.6254452 L8.4,12.2673978 C8.4,11.3928378 8.4,11.3928378 8.4,11.2 C8.4,10.4268014 9.02680135,9.8 9.8,9.8 C10.5731986,9.8 11.2,10.4268014 11.2,11.2 L11.2,12.2673978 L11.2,16.6254452 C11.2,18.2629981 11.8181761,18.6663171 13.1316242,18.6666664 C14.3449267,18.6663295 14.8549158,18.3068655 14.8549158,16.6254452 L14.8549158,11.2 C14.8549158,10.4268014 15.4817172,9.8 16.2549158,9.8 C17.0281145,9.8 17.6549158,10.4268014 17.6549158,11.2 L17.6549158,16.6254452 C17.6549158,20.1050039 15.7257156,21.4645357 13.1360097,21.4666642 C13.1351177,21.4666658 13.1342256,21.4666667 13.1333333,21.4666667 C13.1327637,21.4666667 13.1321941,21.4666666 13.1316245,21.4666665 C13.1310551,21.4666666 13.1304855,21.4666667 13.1299158,21.4666667 C13.1290795,21.4666667 13.1282433,21.4666659 13.1274073,21.4666645 L13.1274073,21.4666645 Z M21,42 C32.5979797,42 42,32.5979797 42,21 C42,9.40202025 32.5979797,0 21,0 C9.40202025,0 0,9.40202025 0,21 C0,32.5979797 9.40202025,42 21,42 Z M7.01578149,26.8096166 C7.21141383,28.1014889 7.92252027,29.9185531 9.49232816,31.720484 C11.9384666,34.5283261 15.7351139,36.2498797 21.0518853,36.3922548 C26.5009741,36.5336575 30.3518689,34.7461144 32.7639437,31.6625822 C34.1690033,29.8663914 34.8068566,28.0682581 34.9862924,26.7954315 C35.0942262,26.0298034 34.5610596,25.3216415 33.7954315,25.2137076 C33.0298034,25.1057738 32.3216415,25.6389404 32.2137076,26.4045685 C32.1891189,26.5789885 32.1032761,26.9480712 31.9271943,27.4444526 C31.6259693,28.2936175 31.1782914,29.1451434 30.5585395,29.9374178 C28.6967256,32.317511 25.693121,33.7117514 21.1256791,33.5932276 C16.578752,33.4714673 13.5249171,32.0867349 11.6035337,29.881242 C10.9142614,29.090049 10.4208067,28.244052 10.0914896,27.40256 C9.90061234,26.9148184 9.80917631,26.555194 9.78421851,26.3903834 C9.66845044,25.6259006 8.95486615,25.1000134 8.19038338,25.2157815 C7.42590061,25.3315496 6.90001343,26.0451338 7.01578149,26.8096166 Z" id="Oval-1"></path>
                </g>
                <path d="M65.6425781,14.203125 L65.6425781,15.75 L64.2714844,16.0136719 L64.2714844,22.6933594 C64.2714844,23.5371136 64.4985329,24.1684549 64.9526367,24.5874023 C65.4067406,25.0063498 66.0292929,25.2158203 66.8203125,25.2158203 C67.6230509,25.2158203 68.2529274,25.0078146 68.7099609,24.5917969 C69.1669945,24.1757792 69.3955078,23.542973 69.3955078,22.6933594 L69.3955078,16.0136719 L68.0332031,15.75 L68.0332031,14.203125 L73.3330078,14.203125 L73.3330078,15.75 L71.9619141,16.0136719 L71.9619141,22.6933594 C71.9619141,24.1289134 71.4887743,25.2363242 70.5424805,26.015625 C69.5961867,26.7949258 68.3554764,27.1845703 66.8203125,27.1845703 C65.291008,27.1845703 64.056157,26.7949258 63.1157227,26.015625 C62.1752883,25.2363242 61.7050781,24.1289134 61.7050781,22.6933594 L61.7050781,16.0136719 L60.3427734,15.75 L60.3427734,14.203125 L61.7050781,14.203125 L64.2714844,14.203125 L65.6425781,14.203125 Z M73.8867188,25.4619141 L74.9677734,25.2509766 L78.3515625,20.5488281 L75.0556641,15.9697266 L73.9833984,15.75 L73.9833984,14.203125 L78.8964844,14.203125 L78.8964844,15.75 L77.8505859,15.8642578 L79.828125,19.0019531 L81.8144531,15.8642578 L80.7861328,15.75 L80.7861328,14.203125 L85.7167969,14.203125 L85.7167969,15.75 L84.6445312,15.9697266 L81.3486328,20.5488281 L84.8027344,25.2421875 L85.9365234,25.4619141 L85.9365234,27 L80.9003906,27 L80.9003906,25.4619141 L81.9199219,25.3564453 L79.8632812,22.1220703 L77.7978516,25.3564453 L78.8261719,25.4619141 L78.8261719,27 L73.8867188,27 L73.8867188,25.4619141 Z M90.9023438,19.0371094 L90.9023438,17.4902344 L94.6552734,17.4902344 L94.7607422,18.7470703 C95.0654312,18.2900368 95.4477516,17.937013 95.9077148,17.6879883 C96.3676781,17.4389636 96.899411,17.3144531 97.5029297,17.3144531 C98.1123077,17.3144531 98.6337869,17.4492174 99.0673828,17.71875 C99.5009787,17.9882826 99.8291004,18.3955051 100.051758,18.9404297 C100.344728,18.4306615 100.725584,18.032228 101.194336,17.7451172 C101.663088,17.4580064 102.213864,17.3144531 102.84668,17.3144531 C103.784184,17.3144531 104.523923,17.6381804 105.065918,18.2856445 C105.607913,18.9331087 105.878906,19.9189387 105.878906,21.2431641 L105.878906,25.1982422 L107.118164,25.4619141 L107.118164,27 L102.205078,27 L102.205078,25.4619141 L103.3125,25.1982422 L103.3125,21.234375 C103.3125,20.5136683 103.195314,20.0126967 102.960938,19.7314453 C102.726561,19.4501939 102.377932,19.3095703 101.915039,19.3095703 C101.551756,19.3095703 101.236818,19.3901359 100.970215,19.5512695 C100.703612,19.7124031 100.491212,19.936522 100.333008,20.2236328 C100.333008,20.3349615 100.335937,20.4301754 100.341797,20.5092773 C100.347656,20.5883793 100.350586,20.6689449 100.350586,20.7509766 L100.350586,25.1982422 L101.387695,25.4619141 L101.387695,27 L96.7558594,27 L96.7558594,25.4619141 L97.7929688,25.1982422 L97.7929688,21.234375 C97.7929688,20.5312465 97.6757824,20.0346694 97.4414062,19.7446289 C97.2070301,19.4545884 96.8554711,19.3095703 96.3867188,19.3095703 C96.0410139,19.3095703 95.7377943,19.3754876 95.4770508,19.5073242 C95.2163073,19.6391608 95.0009774,19.8251941 94.8310547,20.0654297 L94.8310547,25.1982422 L95.9384766,25.4619141 L95.9384766,27 L91.0341797,27 L91.0341797,25.4619141 L92.2734375,25.1982422 L92.2734375,19.3007812 L90.9023438,19.0371094 Z M114,27 C113.929687,26.8417961 113.868164,26.6792001 113.81543,26.512207 C113.762695,26.345214 113.72168,26.1767587 113.692383,26.0068359 C113.387694,26.3584002 113.017092,26.642577 112.580566,26.859375 C112.144041,27.076173 111.644534,27.1845703 111.082031,27.1845703 C110.150386,27.1845703 109.410647,26.9311549 108.862793,26.4243164 C108.314939,25.9174779 108.041016,25.2275434 108.041016,24.3544922 C108.041016,23.4638627 108.398434,22.7753931 109.113281,22.2890625 C109.828129,21.8027319 110.876946,21.5595703 112.259766,21.5595703 L113.569336,21.5595703 L113.569336,20.6279297 C113.569336,20.1708962 113.437501,19.8164075 113.173828,19.5644531 C112.910155,19.3124987 112.52051,19.1865234 112.004883,19.1865234 C111.711913,19.1865234 111.451173,19.2202145 111.222656,19.2875977 C110.994139,19.3549808 110.809571,19.4355464 110.668945,19.5292969 L110.501953,20.5488281 L108.568359,20.5488281 L108.577148,18.4394531 C109.045901,18.1230453 109.583493,17.8564464 110.189941,17.6396484 C110.79639,17.4228505 111.457028,17.3144531 112.171875,17.3144531 C113.349615,17.3144531 114.306149,17.6030245 115.041504,18.1801758 C115.776859,18.7573271 116.144531,19.5790962 116.144531,20.6455078 L116.144531,24.5742188 C116.144531,24.7207039 116.145996,24.8583978 116.148926,24.9873047 C116.151855,25.1162116 116.162109,25.2392572 116.179688,25.3564453 L116.961914,25.4619141 L116.961914,27 L114,27 Z M111.776367,25.2861328 C112.163088,25.2861328 112.514647,25.2026376 112.831055,25.0356445 C113.147463,24.8686515 113.393554,24.6591809 113.569336,24.4072266 L113.569336,22.9570312 L112.259766,22.9570312 C111.714841,22.9570312 111.301759,23.0844714 111.020508,23.3393555 C110.739256,23.5942396 110.598633,23.9003888 110.598633,24.2578125 C110.598633,24.5800797 110.702636,24.8320303 110.910645,25.0136719 C111.118653,25.1953134 111.407225,25.2861328 111.776367,25.2861328 L111.776367,25.2861328 Z M117.55957,14.8359375 L117.55957,13.2890625 L121.488281,13.2890625 L121.488281,21.234375 L122.05957,21.234375 L123.536133,19.1513672 L122.701172,19.0371094 L122.701172,17.4902344 L127.376953,17.4902344 L127.376953,19.0371094 L126.251953,19.2919922 L124.538086,21.6474609 L126.9375,25.2597656 L127.913086,25.4619141 L127.913086,27 L123.518555,27 L123.518555,25.4619141 L124.045898,25.3740234 L122.586914,23.0185547 L121.488281,23.0185547 L121.488281,25.1982422 L122.595703,25.4619141 L122.595703,27 L117.691406,27 L117.691406,25.4619141 L118.930664,25.1982422 L118.930664,15.0996094 L117.55957,14.8359375 Z M133.186523,27.1845703 C131.815423,27.1845703 130.719731,26.7451216 129.899414,25.8662109 C129.079097,24.9873003 128.668945,23.8711005 128.668945,22.5175781 L128.668945,22.1660156 C128.668945,20.7538992 129.057125,19.5908249 129.833496,18.6767578 C130.609867,17.7626907 131.651361,17.3085937 132.958008,17.3144531 C134.241217,17.3144531 135.237301,17.701168 135.946289,18.4746094 C136.655277,19.2480507 137.009766,20.2939387 137.009766,21.6123047 L137.009766,23.0097656 L131.332031,23.0097656 L131.314453,23.0625 C131.361328,23.6894563 131.570799,24.2050761 131.942871,24.609375 C132.314943,25.0136739 132.820309,25.2158203 133.458984,25.2158203 C134.027347,25.2158203 134.499022,25.158692 134.874023,25.0444336 C135.249025,24.9301752 135.659177,24.7500012 136.104492,24.5039062 L136.798828,26.0859375 C136.406248,26.3964859 135.897952,26.6572255 135.273926,26.8681641 C134.649899,27.0791026 133.954105,27.1845703 133.186523,27.1845703 L133.186523,27.1845703 Z M132.958008,19.2919922 C132.483396,19.2919922 132.1084,19.473631 131.833008,19.8369141 C131.557616,20.2001971 131.387696,20.6777314 131.323242,21.2695312 L131.349609,21.3134766 L134.496094,21.3134766 L134.496094,21.0849609 C134.496094,20.5400363 134.368654,20.1049821 134.11377,19.7797852 C133.858885,19.4545882 133.473635,19.2919922 132.958008,19.2919922 L132.958008,19.2919922 Z M145.983398,20.7597656 L144.260742,20.7597656 L143.988281,19.5732422 C143.812499,19.4326165 143.59131,19.3154302 143.324707,19.2216797 C143.058104,19.1279292 142.763673,19.0810547 142.441406,19.0810547 C141.990232,19.0810547 141.632814,19.1821279 141.369141,19.3842773 C141.105467,19.5864268 140.973633,19.8398422 140.973633,20.1445312 C140.973633,20.4316421 141.099608,20.6704092 141.351562,20.8608398 C141.603517,21.0512705 142.107418,21.2197258 142.863281,21.3662109 C144.041022,21.6005871 144.91406,21.9448219 145.482422,22.3989258 C146.050784,22.8530296 146.334961,23.4785116 146.334961,24.2753906 C146.334961,25.1308637 145.967289,25.8295871 145.231934,26.371582 C144.496578,26.9135769 143.528326,27.1845703 142.327148,27.1845703 C141.594723,27.1845703 140.922366,27.0776378 140.310059,26.8637695 C139.697751,26.6499013 139.154299,26.343752 138.679688,25.9453125 L138.65332,23.8095703 L140.446289,23.8095703 L140.797852,25.0488281 C140.950196,25.177735 141.158202,25.2729489 141.421875,25.3344727 C141.685548,25.3959964 141.960936,25.4267578 142.248047,25.4267578 C142.769534,25.4267578 143.166503,25.3330087 143.438965,25.1455078 C143.711427,24.9580069 143.847656,24.7031266 143.847656,24.3808594 C143.847656,24.099608 143.709962,23.8564463 143.43457,23.6513672 C143.159178,23.446288 142.652347,23.2646492 141.914062,23.1064453 C140.794916,22.8779285 139.94971,22.539553 139.378418,22.0913086 C138.807126,21.6430642 138.521484,21.0322304 138.521484,20.2587891 C138.521484,19.4619101 138.849606,18.7749052 139.505859,18.1977539 C140.162113,17.6206026 141.096674,17.3320312 142.30957,17.3320312 C143.047855,17.3320312 143.746579,17.4316396 144.405762,17.6308594 C145.064945,17.8300791 145.582029,18.0849594 145.957031,18.3955078 L145.983398,20.7597656 Z M161.742188,19.0371094 L160.854492,19.1689453 L157.356445,28.4238281 C157.081053,29.1093784 156.713381,29.6835914 156.253418,30.1464844 C155.793455,30.6093773 155.100591,30.8408203 154.174805,30.8408203 C153.958007,30.8408203 153.754395,30.8232424 153.563965,30.7880859 C153.373534,30.7529295 153.149415,30.7031253 152.891602,30.6386719 L153.19043,28.7666016 C153.272461,28.7783204 153.357421,28.790039 153.445312,28.8017578 C153.533204,28.8134766 153.609375,28.8193359 153.673828,28.8193359 C154.101565,28.8193359 154.429686,28.7153331 154.658203,28.5073242 C154.88672,28.2993154 155.062499,28.0400406 155.185547,27.7294922 L155.475586,27.0087891 L152.460938,19.1777344 L151.573242,19.0371094 L151.573242,17.4902344 L156.231445,17.4902344 L156.231445,19.0371094 L155.167969,19.2128906 L156.46875,23.0097656 L156.600586,23.6953125 L156.65332,23.7041016 L158.15625,19.2128906 L157.083984,19.0371094 L157.083984,17.4902344 L161.742188,17.4902344 L161.742188,19.0371094 Z M162.418945,22.1572266 C162.418945,20.7392507 162.815914,19.5776412 163.609863,18.6723633 C164.403813,17.7670853 165.50097,17.3144531 166.901367,17.3144531 C168.307624,17.3144531 169.407711,17.7656205 170.20166,18.6679688 C170.995609,19.570317 171.392578,20.7333913 171.392578,22.1572266 L171.392578,22.3417969 C171.392578,23.7714915 170.995609,24.9360307 170.20166,25.8354492 C169.407711,26.7348678 168.313484,27.1845703 166.918945,27.1845703 C165.506829,27.1845703 164.403813,26.7348678 163.609863,25.8354492 C162.815914,24.9360307 162.418945,23.7714915 162.418945,22.3417969 L162.418945,22.1572266 Z M164.985352,22.3417969 C164.985352,23.2089887 165.137694,23.9047825 165.442383,24.4291992 C165.747072,24.9536159 166.239254,25.2158203 166.918945,25.2158203 C167.581058,25.2158203 168.065916,24.9521511 168.373535,24.4248047 C168.681154,23.8974583 168.834961,23.2031293 168.834961,22.3417969 L168.834961,22.1572266 C168.834961,21.3134723 168.679689,20.6250027 168.369141,20.0917969 C168.058592,19.5585911 167.569339,19.2919922 166.901367,19.2919922 C166.233395,19.2919922 165.747072,19.5585911 165.442383,20.0917969 C165.137694,20.6250027 164.985352,21.3134723 164.985352,22.1572266 L164.985352,22.3417969 Z M179.162109,25.7958984 C178.85742,26.2412132 178.480959,26.5839832 178.032715,26.8242188 C177.58447,27.0644543 177.073245,27.1845703 176.499023,27.1845703 C175.497065,27.1845703 174.711917,26.8637727 174.143555,26.222168 C173.575192,25.5805632 173.291016,24.5830146 173.291016,23.2294922 L173.291016,19.3007812 L172.245117,19.0371094 L172.245117,17.4902344 L173.291016,17.4902344 L175.857422,17.4902344 L175.857422,23.2470703 C175.857422,23.93848 175.973143,24.4350571 176.20459,24.7368164 C176.436036,25.0385757 176.780271,25.1894531 177.237305,25.1894531 C177.641604,25.1894531 177.991698,25.1235358 178.287598,24.9916992 C178.583498,24.8598626 178.825194,24.6708997 179.012695,24.4248047 L179.012695,19.3007812 L177.887695,19.0371094 L177.887695,17.4902344 L179.012695,17.4902344 L181.579102,17.4902344 L181.579102,25.1982422 L182.730469,25.4619141 L182.730469,27 L179.329102,27 L179.162109,25.7958984 Z M195.914062,20.7597656 L194.191406,20.7597656 L193.918945,19.5732422 C193.743163,19.4326165 193.521974,19.3154302 193.255371,19.2216797 C192.988768,19.1279292 192.694338,19.0810547 192.37207,19.0810547 C191.920896,19.0810547 191.563478,19.1821279 191.299805,19.3842773 C191.036131,19.5864268 190.904297,19.8398422 190.904297,20.1445312 C190.904297,20.4316421 191.030272,20.6704092 191.282227,20.8608398 C191.534181,21.0512705 192.038082,21.2197258 192.793945,21.3662109 C193.971686,21.6005871 194.844724,21.9448219 195.413086,22.3989258 C195.981448,22.8530296 196.265625,23.4785116 196.265625,24.2753906 C196.265625,25.1308637 195.897953,25.8295871 195.162598,26.371582 C194.427242,26.9135769 193.45899,27.1845703 192.257812,27.1845703 C191.525387,27.1845703 190.85303,27.0776378 190.240723,26.8637695 C189.628415,26.6499013 189.084963,26.343752 188.610352,25.9453125 L188.583984,23.8095703 L190.376953,23.8095703 L190.728516,25.0488281 C190.88086,25.177735 191.088866,25.2729489 191.352539,25.3344727 C191.616212,25.3959964 191.8916,25.4267578 192.178711,25.4267578 C192.700198,25.4267578 193.097167,25.3330087 193.369629,25.1455078 C193.642091,24.9580069 193.77832,24.7031266 193.77832,24.3808594 C193.77832,24.099608 193.640626,23.8564463 193.365234,23.6513672 C193.089842,23.446288 192.583012,23.2646492 191.844727,23.1064453 C190.72558,22.8779285 189.880374,22.539553 189.309082,22.0913086 C188.73779,21.6430642 188.452148,21.0322304 188.452148,20.2587891 C188.452148,19.4619101 188.78027,18.7749052 189.436523,18.1977539 C190.092777,17.6206026 191.027338,17.3320312 192.240234,17.3320312 C192.978519,17.3320312 193.677243,17.4316396 194.336426,17.6308594 C194.995609,17.8300791 195.512693,18.0849594 195.887695,18.3955078 L195.914062,20.7597656 Z M197.118164,19.0371094 L197.118164,17.4902344 L200.871094,17.4902344 L200.976562,18.7470703 C201.281252,18.2900368 201.663572,17.937013 202.123535,17.6879883 C202.583498,17.4389636 203.115231,17.3144531 203.71875,17.3144531 C204.328128,17.3144531 204.849607,17.4492174 205.283203,17.71875 C205.716799,17.9882826 206.044921,18.3955051 206.267578,18.9404297 C206.560548,18.4306615 206.941404,18.032228 207.410156,17.7451172 C207.878909,17.4580064 208.429684,17.3144531 209.0625,17.3144531 C210.000005,17.3144531 210.739743,17.6381804 211.281738,18.2856445 C211.823733,18.9331087 212.094727,19.9189387 212.094727,21.2431641 L212.094727,25.1982422 L213.333984,25.4619141 L213.333984,27 L208.420898,27 L208.420898,25.4619141 L209.52832,25.1982422 L209.52832,21.234375 C209.52832,20.5136683 209.411134,20.0126967 209.176758,19.7314453 C208.942382,19.4501939 208.593752,19.3095703 208.130859,19.3095703 C207.767576,19.3095703 207.452638,19.3901359 207.186035,19.5512695 C206.919432,19.7124031 206.707032,19.936522 206.548828,20.2236328 C206.548828,20.3349615 206.551758,20.4301754 206.557617,20.5092773 C206.563477,20.5883793 206.566406,20.6689449 206.566406,20.7509766 L206.566406,25.1982422 L207.603516,25.4619141 L207.603516,27 L202.97168,27 L202.97168,25.4619141 L204.008789,25.1982422 L204.008789,21.234375 C204.008789,20.5312465 203.891603,20.0346694 203.657227,19.7446289 C203.42285,19.4545884 203.071291,19.3095703 202.602539,19.3095703 C202.256834,19.3095703 201.953615,19.3754876 201.692871,19.5073242 C201.432128,19.6391608 201.216798,19.8251941 201.046875,20.0654297 L201.046875,25.1982422 L202.154297,25.4619141 L202.154297,27 L197.25,27 L197.25,25.4619141 L198.489258,25.1982422 L198.489258,19.3007812 L197.118164,19.0371094 Z M214.081055,25.4619141 L215.320312,25.1982422 L215.320312,19.3007812 L213.949219,19.0371094 L213.949219,17.4902344 L217.886719,17.4902344 L217.886719,25.1982422 L219.117188,25.4619141 L219.117188,27 L214.081055,27 L214.081055,25.4619141 Z M217.886719,15.2138672 L215.320312,15.2138672 L215.320312,13.2890625 L217.886719,13.2890625 L217.886719,15.2138672 Z M219.688477,14.8359375 L219.688477,13.2890625 L223.625977,13.2890625 L223.625977,25.1982422 L224.865234,25.4619141 L224.865234,27 L219.820312,27 L219.820312,25.4619141 L221.05957,25.1982422 L221.05957,15.0996094 L219.688477,14.8359375 Z M230.25293,27.1845703 C228.881829,27.1845703 227.786137,26.7451216 226.96582,25.8662109 C226.145504,24.9873003 225.735352,23.8711005 225.735352,22.5175781 L225.735352,22.1660156 C225.735352,20.7538992 226.123531,19.5908249 226.899902,18.6767578 C227.676273,17.7626907 228.717767,17.3085937 230.024414,17.3144531 C231.307624,17.3144531 232.303707,17.701168 233.012695,18.4746094 C233.721683,19.2480507 234.076172,20.2939387 234.076172,21.6123047 L234.076172,23.0097656 L228.398438,23.0097656 L228.380859,23.0625 C228.427735,23.6894563 228.637205,24.2050761 229.009277,24.609375 C229.38135,25.0136739 229.886716,25.2158203 230.525391,25.2158203 C231.093753,25.2158203 231.565428,25.158692 231.94043,25.0444336 C232.315432,24.9301752 232.725584,24.7500012 233.170898,24.5039062 L233.865234,26.0859375 C233.472654,26.3964859 232.964359,26.6572255 232.340332,26.8681641 C231.716305,27.0791026 231.020512,27.1845703 230.25293,27.1845703 L230.25293,27.1845703 Z M230.024414,19.2919922 C229.549802,19.2919922 229.174806,19.473631 228.899414,19.8369141 C228.624022,20.2001971 228.454102,20.6777314 228.389648,21.2695312 L228.416016,21.3134766 L231.5625,21.3134766 L231.5625,21.0849609 C231.5625,20.5400363 231.43506,20.1049821 231.180176,19.7797852 C230.925292,19.4545882 230.540042,19.2919922 230.024414,19.2919922 L230.024414,19.2919922 Z" id="UX-makes-you-smile" opacity="0.6" sketch:type="MSShapeGroup"></path>
            </g>
        </g>
    </g>
</svg>